<svg xmlns="http://www.w3.org/2000/svg" width="128" height="128" viewBox="0 0 128 128">
  <defs>
    <linearGradient id="night" x2="1" y2="1"><stop stop-color="#44405f"/><stop offset="1" stop-color="#20202f"/></linearGradient>
    <linearGradient id="ridge" x2="0" y2="1"><stop stop-color="#8be9fd"/><stop offset="1" stop-color="#5484b5"/></linearGradient>
  </defs>
  <rect x="14" y="18" width="100" height="100" rx="24" fill="#11111b"/>
  <rect x="14" y="10" width="100" height="100" rx="24" fill="url(#night)"/>
  <rect x="24" y="20" width="80" height="80" rx="15" fill="#191a2a" stroke="#77728f" stroke-opacity=".4"/>
  <circle cx="79" cy="42" r="12" fill="#f5e6c5"/>
  <path d="M24 79 46 49 70 78 86 61 104 81v4q0 15-15 15H39q-15 0-15-15Z" fill="url(#ridge)"/>
  <path d="m24 87 32-20 48 21q-1 12-15 12H39q-14 0-15-13" fill="#bd93f9" fill-opacity=".8"/>
  <path d="m38 32 2-5 2 5 5 2-5 2-2 5-2-5-5-2Z" fill="#8be9fd"/>
</svg>
